<?xml version="1.0" encoding="UTF-8" standalone="no"?>
<svg
   height="128px"
   viewBox="0 0 128 128"
   width="128px"
   version="1.1"
   id="svg9"
   sodipodi:docname="folder-music.svg"
   inkscape:version="1.4.4 (dcaf3e7, 2026-05-05)"
   xmlns:inkscape="http://www.inkscape.org/namespaces/inkscape"
   xmlns:sodipodi="http://sodipodi.sourceforge.net/DTD/sodipodi-0.dtd"
   xmlns="http://www.w3.org/2000/svg"
   xmlns:svg="http://www.w3.org/2000/svg">
  <defs
     id="defs9">
    <linearGradient
       id="a-7"
       gradientTransform="matrix(0.45451,0,0,0.455522,-1210.2921,616.17261)"
       gradientUnits="userSpaceOnUse"
       x1="2689.252"
       x2="2918.0698"
       y1="-1106.803"
       y2="-1106.803">
      <stop
         offset="0"
         stop-color="#8394a4"
         id="stop1-2"
         style="stop-color:#737373;stop-opacity:1;" />
      <stop
         offset="0.0576991"
         stop-color="#bfc8d0"
         id="stop2-6"
         style="stop-color:#c0c0c0;stop-opacity:1;" />
      <stop
         offset="0.122204"
         stop-color="#8394a4"
         id="stop3-0"
         style="stop-color:#737373;stop-opacity:1;" />
      <stop
         offset="0.87330598"
         stop-color="#8394a4"
         id="stop4-1"
         style="stop-color:#737373;stop-opacity:1;" />
      <stop
         offset="0.95599699"
         stop-color="#bfc8d0"
         id="stop5-6"
         style="stop-color:#c0c0c0;stop-opacity:1;" />
      <stop
         offset="1"
         stop-color="#8394a4"
         id="stop6-5"
         style="stop-color:#737373;stop-opacity:1;" />
    </linearGradient>
  </defs>
  <sodipodi:namedview
     id="namedview9"
     pagecolor="#ffffff"
     bordercolor="#000000"
     borderopacity="0.25"
     inkscape:showpageshadow="2"
     inkscape:pageopacity="0.0"
     inkscape:pagecheckerboard="0"
     inkscape:deskcolor="#d1d1d1"
     inkscape:zoom="2.2290436"
     inkscape:cx="45.535223"
     inkscape:cy="61.685647"
     inkscape:window-width="958"
     inkscape:window-height="603"
     inkscape:window-x="953"
     inkscape:window-y="397"
     inkscape:window-maximized="0"
     inkscape:current-layer="svg9" />
  <linearGradient
     id="a"
     gradientTransform="matrix(0.45451 0 0 0.455522 -1210.292114 616.172607)"
     gradientUnits="userSpaceOnUse"
     x1="2689.251953"
     x2="2918.069824"
     y1="-1106.802979"
     y2="-1106.802979">
    <stop
       offset="0"
       stop-color="#8394a4"
       id="stop1" />
    <stop
       offset="0.0576991"
       stop-color="#bfc8d0"
       id="stop2" />
    <stop
       offset="0.122204"
       stop-color="#8394a4"
       id="stop3" />
    <stop
       offset="0.873306"
       stop-color="#8394a4"
       id="stop4" />
    <stop
       offset="0.955997"
       stop-color="#bfc8d0"
       id="stop5" />
    <stop
       offset="1"
       stop-color="#8394a4"
       id="stop6" />
  </linearGradient>
  <path
     d="M 21.976562,12 C 16.449219,12 12,16.460938 12,22 v 86.03125 c 0,5.54297 4.449219,10 9.976562,10 h 84.042968 c 5.53125,0 9.98047,-4.45703 9.98047,-10 V 35.945312 c 0,-6.628906 -5.35937,-12 -11.97266,-12 H 58 c -2.453125,0 -4.695312,-1.386718 -5.796875,-3.582031 L 50.699219,17.371094 C 49.042969,14.078125 45.679688,12 42,12 Z m 0,0"
     fill="#6F8396"
     id="path6"
     style="display:inline;fill:#737373;fill-opacity:1" />
  <path
     d="M 65.976562,36 C 63.230469,36 60.75,37.101562 58.949219,38.890625 56.675781,41.144531 53.566406,44 50.316406,44 H 21.976562 C 16.449219,44 12,48.460938 12,54 v 54.03125 c 0,5.54297 4.449219,10 9.976562,10 h 84.042968 c 5.53125,0 9.98047,-4.45703 9.98047,-10 V 46 c 0,-5.539062 -4.44922,-10 -9.98047,-10 z m 0,0"
     fill="url(#a)"
     id="path7"
     style="display:inline;fill:url(#a-7)" />
  <path
     d="M 65.976562,32 C 63.230469,32 60.75,33.101562 58.949219,34.890625 56.675781,37.144531 53.566406,40 50.316406,40 H 21.976562 C 16.449219,40 12,44.460938 12,50 v 55.97656 c 0,5.53907 4.449219,10 9.976562,10 h 84.042968 c 5.53125,0 9.98047,-4.46093 9.98047,-10 V 42 c 0,-5.539062 -4.44922,-10 -9.98047,-10 z m 0,0"
     fill="#b5bfc9"
     id="path8"
     style="fill:#aaaaaa;fill-opacity:1" />
  <path
     d="m 66 64 c -3.289062 0 -6 2.710938 -6 6 v 8.679688 c -0.914062 -0.429688 -1.929688 -0.679688 -3 -0.679688 c -3.84375 0 -7 3.15625 -7 7 s 3.15625 7 7 7 c 3.828125 0 6.984375 -3.140625 7 -6.96875 c 0 -0.007812 0 -0.023438 0 -0.03125 v -15 c 0 -1.125 0.875 -2 2 -2 h 8 c 1.125 0 2 0.875 2 2 v 8.679688 c -0.914062 -0.429688 -1.929688 -0.679688 -3 -0.679688 c -3.84375 0 -7 3.15625 -7 7 s 3.15625 7 7 7 s 7 -3.15625 7 -7 v -15 c 0 -3.289062 -2.710938 -6 -6 -6 z m -9 18 c 1.679688 0 3 1.320312 3 3 v 0.03125 c -0.015625 1.664062 -1.328125 2.96875 -3 2.96875 c -1.679688 0 -3 -1.320312 -3 -3 s 1.320312 -3 3 -3 z m 16 0 c 1.679688 0 3 1.320312 3 3 s -1.320312 3 -3 3 s -3 -1.320312 -3 -3 s 1.320312 -3 3 -3 z m 0 0"
     fill="#6F8396"
     id="path9"
     style="fill:#737373;fill-opacity:1" />
</svg>
