<?xml version="1.0" encoding="UTF-8" standalone="no"?>
<svg
   height="128px"
   viewBox="0 0 128 128"
   width="128px"
   version="1.1"
   id="svg9"
   sodipodi:docname="user-home.svg"
   inkscape:version="1.4.4 (dcaf3e7, 2026-05-05)"
   xmlns:inkscape="http://www.inkscape.org/namespaces/inkscape"
   xmlns:sodipodi="http://sodipodi.sourceforge.net/DTD/sodipodi-0.dtd"
   xmlns="http://www.w3.org/2000/svg"
   xmlns:svg="http://www.w3.org/2000/svg">
  <defs
     id="defs9">
    <linearGradient
       id="a-0"
       gradientTransform="matrix(0.45451,0,0,0.455522,-1210.2921,616.17261)"
       gradientUnits="userSpaceOnUse"
       x1="2689.252"
       x2="2918.0698"
       y1="-1106.803"
       y2="-1106.803">
      <stop
         offset="0"
         stop-color="#8394a4"
         id="stop1-7"
         style="stop-color:#737373;stop-opacity:1;" />
      <stop
         offset="0.0576991"
         stop-color="#bfc8d0"
         id="stop2-3"
         style="stop-color:#c0c0c0;stop-opacity:1;" />
      <stop
         offset="0.122204"
         stop-color="#8394a4"
         id="stop3-4"
         style="stop-color:#737373;stop-opacity:1;" />
      <stop
         offset="0.87330598"
         stop-color="#8394a4"
         id="stop4-9"
         style="stop-color:#737373;stop-opacity:1;" />
      <stop
         offset="0.95599699"
         stop-color="#bfc8d0"
         id="stop5-6"
         style="stop-color:#c0c0c0;stop-opacity:1;" />
      <stop
         offset="1"
         stop-color="#8394a4"
         id="stop6-5"
         style="stop-color:#737373;stop-opacity:1;" />
    </linearGradient>
  </defs>
  <sodipodi:namedview
     id="namedview9"
     pagecolor="#ffffff"
     bordercolor="#000000"
     borderopacity="0.25"
     inkscape:showpageshadow="2"
     inkscape:pageopacity="0.0"
     inkscape:pagecheckerboard="0"
     inkscape:deskcolor="#d1d1d1"
     inkscape:zoom="2.2290436"
     inkscape:cx="77.836071"
     inkscape:cy="64.826008"
     inkscape:window-width="958"
     inkscape:window-height="603"
     inkscape:window-x="953"
     inkscape:window-y="397"
     inkscape:window-maximized="0"
     inkscape:current-layer="svg9" />
  <linearGradient
     id="a"
     gradientTransform="matrix(0.45451 0 0 0.455522 -1210.292114 616.172607)"
     gradientUnits="userSpaceOnUse"
     x1="2689.251953"
     x2="2918.069824"
     y1="-1106.802979"
     y2="-1106.802979">
    <stop
       offset="0"
       stop-color="#8394a4"
       id="stop1" />
    <stop
       offset="0.0576991"
       stop-color="#bfc8d0"
       id="stop2" />
    <stop
       offset="0.122204"
       stop-color="#8394a4"
       id="stop3" />
    <stop
       offset="0.873306"
       stop-color="#8394a4"
       id="stop4" />
    <stop
       offset="0.955997"
       stop-color="#bfc8d0"
       id="stop5" />
    <stop
       offset="1"
       stop-color="#8394a4"
       id="stop6" />
  </linearGradient>
  <path
     d="M 21.976562,12 C 16.449219,12 12,16.460938 12,22 v 86.03125 c 0,5.54297 4.449219,10 9.976562,10 h 84.042968 c 5.53125,0 9.98047,-4.45703 9.98047,-10 V 35.945312 c 0,-6.628906 -5.35937,-12 -11.97266,-12 H 58 c -2.453125,0 -4.695312,-1.386718 -5.796875,-3.582031 L 50.699219,17.371094 C 49.042969,14.078125 45.679688,12 42,12 Z m 0,0"
     fill="#6F8396"
     id="path6"
     style="display:inline;fill:#737373;fill-opacity:1" />
  <path
     d="M 65.976562,36 C 63.230469,36 60.75,37.101562 58.949219,38.890625 56.675781,41.144531 53.566406,44 50.316406,44 H 21.976562 C 16.449219,44 12,48.460938 12,54 v 54.03125 c 0,5.54297 4.449219,10 9.976562,10 h 84.042968 c 5.53125,0 9.98047,-4.45703 9.98047,-10 V 46 c 0,-5.539062 -4.44922,-10 -9.98047,-10 z m 0,0"
     fill="url(#a)"
     id="path7"
     style="display:inline;fill:url(#a-0)" />
  <path
     d="M 65.976562,32 C 63.230469,32 60.75,33.101562 58.949219,34.890625 56.675781,37.144531 53.566406,40 50.316406,40 H 21.976562 C 16.449219,40 12,44.460938 12,50 v 55.97656 c 0,5.53907 4.449219,10 9.976562,10 h 84.042968 c 5.53125,0 9.98047,-4.46093 9.98047,-10 V 42 c 0,-5.539062 -4.44922,-10 -9.98047,-10 z m 0,0"
     fill="#b5bfc9"
     id="path8"
     style="fill:#aaaaaa;fill-opacity:1" />
  <path
     d="m 64.875 64 c -0.414062 0 -0.820312 0.132812 -1.164062 0.367188 l -14.878907 10 c -0.898437 0.648437 -1.109375 1.890624 -0.46875 2.789062 c 0.382813 0.53125 0.984375 0.84375 1.632813 0.835938 v 8.007812 c 0 3.289062 2.710937 6 6 6 h 18.003906 c 3.289062 0 6 -2.640625 6 -6 v -8.007812 c 0.648438 0.007812 1.25 -0.304688 1.632812 -0.835938 c 0.640626 -0.898438 0.429688 -2.140625 -0.46875 -2.789062 l -15.125 -10 c -0.34375 -0.234376 -0.75 -0.367188 -1.164062 -0.367188 z m 0 4.453125 l 11.125 7.140625 v 10.40625 c 0 1.125 -0.875 2 -2 2 h -8.003906 v -8 c 0 -1.109375 -0.890625 -2 -2 -2 h -2 c -1.109375 0 -2 0.890625 -2 2 v 8 h -4 c -1.125 0 -2 -0.875 -2 -2 v -10.40625 z m 0 0"
     fill="#6F8396"
     id="path9"
     style="fill:#737373;fill-opacity:1" />
</svg>
